<svg xmlns="http://www.w3.org/2000/svg" width="760" height="532" viewBox="0 0 760 532" role="img" aria-label="Darp.Luau and other Lua libraries for .NET">
<style>text { font-family: system-ui, -apple-system, "Segoe UI", sans-serif; }
.surface { fill: #fcfcfb; stroke: rgba(11, 11, 11, 0.10); }
.primary { fill: #0b0b0b; }
.secondary { fill: #52514e; }
.muted { fill: #898781; }
.axis { stroke: #c3c2b7; }
.highlight { fill: #2a78d6; }
.context { fill: #898781; }
.title { font-size: 16px; font-weight: 600; }
.subtitle, .label, .value { font-size: 12px; }
.panel-title { font-size: 13px; font-weight: 600; }
.emphasis { font-weight: 600; }
.footnote { font-size: 11px; }
@media (prefers-color-scheme: dark) {
  .surface { fill: #1a1a19; stroke: rgba(255, 255, 255, 0.10); }
  .primary { fill: #ffffff; }
  .secondary { fill: #c3c2b7; }
  .axis { stroke: #383835; }
  .highlight { fill: #3987e5; }
}</style>
<rect class="surface" x="0.5" y="0.5" width="759" height="531" rx="8"/>
<text class="title primary" x="24" y="38">Darp.Luau and other Lua libraries for .NET</text>
<text class="subtitle secondary" x="24" y="58">Managed memory allocated per operation. Lower is better.</text>
<text class="panel-title primary" x="24" y="84">Call a Lua function from C#</text>
<text class="label primary emphasis" x="150" y="112" text-anchor="end">Darp.Luau</text>
<path class="highlight" d="M158,101 h0.5 a0.5,0.5 0 0 1 0.5,0.5 v13 a0.5,0.5 0 0 1 -0.5,0.5 h-0.5 z"/>
<text class="value primary emphasis" x="165" y="112">0 B<tspan class="muted"></tspan></text>
<text class="label secondary" x="150" y="136" text-anchor="end">NuLua (Luau)</text>
<path class="context" d="M158,125 h25.75 a4,4 0 0 1 4,4 v6 a4,4 0 0 1 -4,4 h-25.75 z"/>
<text class="value primary" x="193.8" y="136">56 B<tspan class="muted"></tspan></text>
<text class="label secondary" x="150" y="160" text-anchor="end">NLua (Lua 5.4)</text>
<path class="context" d="M158,149 h98 a4,4 0 0 1 4,4 v6 a4,4 0 0 1 -4,4 h-98 z"/>
<text class="value primary" x="266" y="160">192 B<tspan class="muted"></tspan></text>
<text class="label secondary" x="150" y="184" text-anchor="end">Lua-CSharp (Lua 5.2)</text>
<path class="context" d="M158,173 h21.5 a4,4 0 0 1 4,4 v6 a4,4 0 0 1 -4,4 h-21.5 z"/>
<text class="value primary" x="189.5" y="184">48 B<tspan class="muted"></tspan></text>
<line class="axis" x1="157.5" y1="96" x2="157.5" y2="192"/>
<text class="panel-title primary" x="396" y="84">Call a C# function from Lua</text>
<text class="label primary emphasis" x="522" y="112" text-anchor="end">Darp.Luau</text>
<path class="highlight" d="M530,101 h0.5 a0.5,0.5 0 0 1 0.5,0.5 v13 a0.5,0.5 0 0 1 -0.5,0.5 h-0.5 z"/>
<text class="value primary emphasis" x="537" y="112">0 B<tspan class="muted"></tspan></text>
<text class="label secondary" x="522" y="136" text-anchor="end">NuLua (Luau)</text>
<path class="context" d="M530,125 h0.5 a0.5,0.5 0 0 1 0.5,0.5 v13 a0.5,0.5 0 0 1 -0.5,0.5 h-0.5 z"/>
<text class="value primary" x="537" y="136">0 B<tspan class="muted"></tspan></text>
<text class="label secondary" x="522" y="160" text-anchor="end">NLua (Lua 5.4)</text>
<path class="context" d="M530,149 h98 a4,4 0 0 1 4,4 v6 a4,4 0 0 1 -4,4 h-98 z"/>
<text class="value primary" x="638" y="160">504 B<tspan class="muted"></tspan></text>
<text class="label secondary" x="522" y="184" text-anchor="end">Lua-CSharp (Lua 5.2)</text>
<path class="context" d="M530,173 h0.5 a0.5,0.5 0 0 1 0.5,0.5 v13 a0.5,0.5 0 0 1 -0.5,0.5 h-0.5 z"/>
<text class="value primary" x="537" y="184">0 B<tspan class="muted"></tspan></text>
<line class="axis" x1="529.5" y1="96" x2="529.5" y2="192"/>
<text class="panel-title primary" x="24" y="228">Set and get a table field</text>
<text class="label primary emphasis" x="150" y="256" text-anchor="end">Darp.Luau</text>
<path class="highlight" d="M158,245 h0.5 a0.5,0.5 0 0 1 0.5,0.5 v13 a0.5,0.5 0 0 1 -0.5,0.5 h-0.5 z"/>
<text class="value primary emphasis" x="165" y="256">0 B<tspan class="muted"></tspan></text>
<text class="label secondary" x="150" y="280" text-anchor="end">NuLua (Luau)</text>
<path class="context" d="M158,269 h0.5 a0.5,0.5 0 0 1 0.5,0.5 v13 a0.5,0.5 0 0 1 -0.5,0.5 h-0.5 z"/>
<text class="value primary" x="165" y="280">0 B<tspan class="muted"></tspan></text>
<text class="label secondary" x="150" y="304" text-anchor="end">NLua (Lua 5.4)</text>
<path class="context" d="M158,293 h98 a4,4 0 0 1 4,4 v6 a4,4 0 0 1 -4,4 h-98 z"/>
<text class="value primary" x="266" y="304">304 B<tspan class="muted"></tspan></text>
<text class="label secondary" x="150" y="328" text-anchor="end">Lua-CSharp (Lua 5.2)</text>
<path class="context" d="M158,317 h0.5 a0.5,0.5 0 0 1 0.5,0.5 v13 a0.5,0.5 0 0 1 -0.5,0.5 h-0.5 z"/>
<text class="value primary" x="165" y="328">0 B<tspan class="muted"></tspan></text>
<line class="axis" x1="157.5" y1="240" x2="157.5" y2="336"/>
<text class="panel-title primary" x="396" y="228">Run a script: fib(20)</text>
<text class="label primary emphasis" x="522" y="256" text-anchor="end">Darp.Luau</text>
<path class="highlight" d="M530,245 h0.5 a0.5,0.5 0 0 1 0.5,0.5 v13 a0.5,0.5 0 0 1 -0.5,0.5 h-0.5 z"/>
<text class="value primary emphasis" x="537" y="256">0 B<tspan class="muted"></tspan></text>
<text class="label secondary" x="522" y="280" text-anchor="end">NuLua (Luau)</text>
<path class="context" d="M530,269 h30 a4,4 0 0 1 4,4 v6 a4,4 0 0 1 -4,4 h-30 z"/>
<text class="value primary" x="570" y="280">56 B<tspan class="muted"></tspan></text>
<text class="label secondary" x="522" y="304" text-anchor="end">NLua (Lua 5.4)</text>
<path class="context" d="M530,293 h98 a4,4 0 0 1 4,4 v6 a4,4 0 0 1 -4,4 h-98 z"/>
<text class="value primary" x="638" y="304">168 B<tspan class="muted"></tspan></text>
<text class="label secondary" x="522" y="328" text-anchor="end">Lua-CSharp (Lua 5.2)</text>
<path class="context" d="M530,317 h25.14 a4,4 0 0 1 4,4 v6 a4,4 0 0 1 -4,4 h-25.14 z"/>
<text class="value primary" x="565.1" y="328">48 B<tspan class="muted"></tspan></text>
<line class="axis" x1="529.5" y1="240" x2="529.5" y2="336"/>
<text class="panel-title primary" x="24" y="372">Create a state</text>
<text class="label primary emphasis" x="150" y="400" text-anchor="end">Darp.Luau</text>
<path class="highlight" d="M158,389 h3.15 a3.15,3.15 0 0 1 3.15,3.15 v7.69 a3.15,3.15 0 0 1 -3.15,3.15 h-3.15 z"/>
<text class="value primary emphasis" x="170.3" y="400">1.73 KB<tspan class="muted"></tspan></text>
<text class="label secondary" x="150" y="424" text-anchor="end">NuLua (Luau)</text>
<path class="context" d="M158,413 h0.93 a0.93,0.93 0 0 1 0.93,0.93 v12.14 a0.93,0.93 0 0 1 -0.93,0.93 h-0.93 z"/>
<text class="value primary" x="165.9" y="424">520 B<tspan class="muted">  0.3×</tspan></text>
<text class="label secondary" x="150" y="448" text-anchor="end">NLua (Lua 5.4)</text>
<path class="context" d="M158,437 h19.57 a4,4 0 0 1 4,4 v6 a4,4 0 0 1 -4,4 h-19.57 z"/>
<text class="value primary" x="187.6" y="448">6.45 KB<tspan class="muted">  3.7×</tspan></text>
<text class="label secondary" x="150" y="472" text-anchor="end">Lua-CSharp (Lua 5.2)</text>
<path class="context" d="M158,461 h98 a4,4 0 0 1 4,4 v6 a4,4 0 0 1 -4,4 h-98 z"/>
<text class="value primary" x="266" y="472">27.9 KB<tspan class="muted">  16×</tspan></text>
<line class="axis" x1="157.5" y1="384" x2="157.5" y2="480"/>
<text class="footnote muted" x="24" y="512">2026-10-05 · AMD EPYC 7763 64-Core Processor · .NET 10.0.12 · The factor after a value compares it with Darp.Luau.</text>
</svg>
